<svg width="143" height="143" viewBox="0 0 143 143" fill="none" xmlns="http://www.w3.org/2000/svg">
<path d="M83.05 69.9916L73.5333 60.4499L82.0875 51.8666L86.9167 56.6916L89.8667 53.7416L85.0625 48.9166L93.1958 40.7832L102.738 50.3249L83.05 69.9916ZM50.4083 102.658L40.8667 93.1166L48.9958 84.9832L53.8208 89.7832L56.7667 86.8332L51.9708 82.0082L60.4708 73.5332L69.9917 83.0499L50.4083 102.658ZM91.1958 104.333H104.333V91.1916L86.025 72.8832L108.5 50.3291L93.1958 35.0249L70.5333 57.6041L51.9208 38.9666C51.4625 38.5055 50.9792 38.1735 50.4708 37.9707C49.9625 37.768 49.4208 37.6666 48.8458 37.6666C48.2708 37.6666 47.7292 37.768 47.2208 37.9707C46.7125 38.1735 46.2278 38.5055 45.7667 38.9666L38.9667 46.0332C38.5056 46.4916 38.1861 46.9749 38.0083 47.4832C37.8306 47.9916 37.743 48.5332 37.7458 49.1082C37.7486 49.6832 37.8375 50.2082 38.0125 50.6832C38.1875 51.1582 38.5042 51.6249 38.9625 52.0832L57.4208 70.6416L35.0208 93.1957L50.3333 108.5L72.8875 86.0249L91.1958 104.333ZM100.167 100.167H92.9708L52.0542 59.2749L59.2792 52.0582L100.167 92.9707V100.167ZM55.6167 55.6416L59.275 52.0582L52.0583 59.2791L55.6167 55.6416Z" fill="black"/>
<circle cx="71.5" cy="71.5" r="70" transform="matrix(-1 0 0 1 143 0)" stroke="#4E61F6" stroke-width="3"/>
</svg>
